<?xml version="1.0" encoding="UTF-8" standalone="no"?>
<!-- Created with Inkscape (http://www.inkscape.org/) -->

<svg
   width="3.6525955mm"
   height="3.5004654mm"
   viewBox="0 0 3.6525955 3.5004654"
   version="1.1"
   id="svg287"
   xmlns="http://www.w3.org/2000/svg"
   xmlns:svg="http://www.w3.org/2000/svg">
  <defs
     id="defs284">
    <filter
       style="color-interpolation-filters:sRGB"
       id="filter8341-0"
       x="-0.024764195"
       y="-0.026173107"
       width="1.0495301"
       height="1.0523189">
      <feGaussianBlur
         stdDeviation="0.0016136533"
         id="feGaussianBlur8343-2" />
    </filter>
  </defs>
  <g
     id="layer1"
     transform="translate(-83.749971,-63.690443)">
    <g
       id="g3486-5-5-5"
       transform="matrix(0.19672267,0.01921846,-0.01921846,0.19672267,85.039892,39.280763)"
       style="display:inline;fill:none;fill-opacity:1;stroke:#000000;stroke-width:0.794017;stroke-dasharray:none;stroke-opacity:1;filter:url(#filter8341-0)">
      <path
         d="m 17.211838,129.07651 c 0.114602,-1.29109 -1.172997,-2.96665 -2.206984,-3.15186"
         style="fill:none;fill-opacity:1;stroke:#000000;stroke-width:0.794017;stroke-linecap:round;stroke-linejoin:round;stroke-dasharray:none;stroke-opacity:1"
         id="path3203-5-1-1-6" />
      <path
         d="m 22.513544,128.16103 c 0.114602,-1.29109 -1.172997,-2.96665 -2.206984,-3.15186"
         style="fill:none;fill-opacity:1;stroke:#000000;stroke-width:0.794017;stroke-linecap:round;stroke-linejoin:round;stroke-dasharray:none;stroke-opacity:1"
         id="path3203-5-7-9-9-1" />
      <path
         style="fill:none;fill-opacity:1;stroke:#000000;stroke-width:0.794017;stroke-linecap:round;stroke-linejoin:round;stroke-dasharray:none;stroke-opacity:1"
         id="path3322-5-6-2"
         d="m 15.213469,131.71042 a 4.0183592,3.9026041 0 0 1 -0.986603,4.33426 4.0183592,3.9026041 0 0 1 -4.5236861,0.63413 4.0183592,3.9026041 0 0 1 -2.208357,-3.88638 4.0183592,3.9026041 0 0 1 2.9639821,-3.37898" />
      <path
         style="fill:none;fill-opacity:1;stroke:#000000;stroke-width:0.794017;stroke-linecap:round;stroke-linejoin:round;stroke-dasharray:none;stroke-opacity:1"
         id="path3322-2-8-5-6"
         d="m 10.775336,130.11842 a 4.0183592,3.9026041 0 0 1 0.971806,-4.3536 4.0183592,3.9026041 0 0 1 4.540364,-0.63267 4.0183592,3.9026041 0 0 1 2.192982,3.91261 4.0183592,3.9026041 0 0 1 -3.011781,3.35989" />
      <path
         style="fill:none;fill-opacity:1;stroke:#000000;stroke-width:0.794017;stroke-linecap:round;stroke-linejoin:round;stroke-dasharray:none;stroke-opacity:1"
         id="path3322-26-5-0-9"
         d="m 16.507684,125.25637 a 4.0183592,3.9026041 0 0 1 4.752166,-1.13558 4.0183592,3.9026041 0 0 1 2.357414,4.16515 4.0183592,3.9026041 0 0 1 -3.533959,3.28794" />
      <path
         style="fill:none;fill-opacity:1;stroke:#000000;stroke-width:0.794017;stroke-linecap:round;stroke-linejoin:round;stroke-dasharray:none;stroke-opacity:1"
         d="m 13.797789,136.41102 1.753956,2.71279 7.670636,-5.3788 -1.777343,-2.57247"
         id="path3421-1-7-3" />
      <path
         style="fill:none;fill-opacity:1;stroke:#000000;stroke-width:0.794017;stroke-linecap:round;stroke-linejoin:round;stroke-dasharray:none;stroke-opacity:1"
         d="m 14.756618,137.88435 7.623864,-5.16833"
         id="path3423-2-7-5" />
    </g>
  </g>
</svg>
