<?xml version="1.0" encoding="UTF-8" standalone="no"?>
<!-- Created with Inkscape (http://www.inkscape.org/) -->

<svg
   width="27.613489mm"
   height="17.536484mm"
   viewBox="0 0 27.613489 17.536484"
   version="1.1"
   id="svg5"
   inkscape:version="1.2 (dc2aedaf03, 2022-05-15)"
   sodipodi:docname="logo Anne.svg"
   xml:space="preserve"
   inkscape:export-filename="background.svg"
   inkscape:export-xdpi="96"
   inkscape:export-ydpi="96"
   xmlns:inkscape="http://www.inkscape.org/namespaces/inkscape"
   xmlns:sodipodi="http://sodipodi.sourceforge.net/DTD/sodipodi-0.dtd"
   xmlns="http://www.w3.org/2000/svg"
   xmlns:svg="http://www.w3.org/2000/svg"><sodipodi:namedview
     id="namedview7"
     pagecolor="#ffffff"
     bordercolor="#000000"
     borderopacity="0.25"
     inkscape:showpageshadow="2"
     inkscape:pageopacity="0.0"
     inkscape:pagecheckerboard="0"
     inkscape:deskcolor="#d1d1d1"
     inkscape:document-units="mm"
     showgrid="false"
     inkscape:zoom="1.1797848"
     inkscape:cx="201.30791"
     inkscape:cy="356.42095"
     inkscape:window-width="1920"
     inkscape:window-height="1111"
     inkscape:window-x="-9"
     inkscape:window-y="-9"
     inkscape:window-maximized="1"
     inkscape:current-layer="layer1" /><defs
     id="defs2" /><g
     inkscape:label="Layer 1"
     inkscape:groupmode="layer"
     id="layer1"
     transform="translate(-22.659025,-180.29612)"><g
       id="g4290"
       style="display:inline"
       inkscape:label="page 1"
       inkscape:export-filename="Documents\Anne\Anne-logo.svg"
       inkscape:export-xdpi="96"
       inkscape:export-ydpi="96"><g
         id="g18205"
         transform="matrix(0.28348807,0,0,0.28348807,16.484062,180.82452)"
         style="display:inline;fill:none;fill-opacity:1;stroke:#ff9c00;stroke-opacity:1"
         inkscape:label="texte-path"
         inkscape:export-filename="Documents\Anne\texte.svg"
         inkscape:export-xdpi="96"
         inkscape:export-ydpi="96"><g
           aria-label="Anne"
           id="text18191"
           style="font-size:36px;font-family:'Freestyle Script';-inkscape-font-specification:'Freestyle Script';stroke-linecap:round"
           inkscape:label="Anne"><path
             d="m 60.059013,21.892879 -0.984375,1.40625 -1.916015,-0.03516 1.107422,-1.582031 q -3.251954,-0.5625 -5.783204,-2.373047 -5.34375,4.324219 -10.160156,4.324219 -2.074219,0 -3.796875,-1.107422 -1.705078,-1.107422 -1.705078,-2.777344 0,-0.914062 0.509766,-1.423828 0.527343,-0.527344 1.160156,-0.527344 0.580078,0 0.984375,0.404297 0.404297,0.386719 0.404297,0.931641 0,0.474609 -0.351563,0.808594 -0.333984,0.333984 -0.826172,0.333984 -1.107421,0 -1.177734,-1.441406 l -0.07031,-0.01758 q -0.421875,0.509765 -0.421875,1.125 0,1.423828 1.669921,2.478515 1.669922,1.054688 3.84961,1.054688 2.601562,0 5.466797,-1.441407 2.865234,-1.441406 4.324218,-2.865234 -3.919921,-3.691406 -3.919921,-7.927734 0,-2.6015628 1.371093,-4.3945315 1.388672,-1.8105469 3.445313,-1.8105469 2.33789,0 4.253906,1.8808594 1.916016,1.8632812 2.917969,4.921875 7.294922,-6.75 10.423828,-8.859375 3.128906,-2.10937501 5.642578,-3.14648439 2.53125,-1.05468751 4.763672,-1.14257811 L 76.301203,3.1721704 Q 72.768,6.3713891 67.441828,12.629202 q -5.326172,6.240234 -7.242188,9.070312 2.988282,-0.158203 4.97461,-1.792969 l 0.123047,0.123047 q -1.986329,1.634766 -5.238282,1.863281 z m 0.386719,-9.826171 q 0.263672,1.001953 0.263672,2.074218 0,2.636719 -1.564453,6.169922 l 0.140625,0.07031 q 4.658203,-6.416016 11.126953,-12.902344 6.46875,-6.48632814 10.037109,-8.41992189 l -0.03516,-0.12304691 q -3.410156,0.31640629 -8.015625,3.1816407 -4.605469,2.8652343 -11.953125,9.9492191 z m -7.962891,6.996093 q 1.388672,-1.054687 4.060547,-3.498047 2.671875,-2.460937 3.726563,-3.603515 -0.720703,-2.513672 -2.513672,-4.341797 -1.775391,-1.828125 -3.902344,-1.828125 -2.214844,0 -3.708984,1.6347656 -1.476563,1.6347656 -1.476563,4.1132814 0,4.078125 3.814453,7.523437 z m 5.90625,2.460938 q 2.16211,-4.113281 2.16211,-7.365235 0,-0.949218 -0.228516,-2.003906 -4.394531,4.341797 -7.699219,7.048828 0.914063,0.75586 2.619141,1.458985 1.705078,0.685547 3.146484,0.861328 z"
             style="font-family:'Kunstler Script';-inkscape-font-specification:'Kunstler Script'"
             id="path18207" /><path
             d="m 65.15667,19.906551 q 4.148437,-3.46289 5.642578,-3.46289 0.351562,0 0.597656,0.246093 0.263672,0.228516 0.263672,0.632813 0,1.160156 -1.494141,2.724609 l 0.07031,0.07031 q 4.130859,-3.621094 5.71289,-3.621094 1.195313,0 1.195313,1.019531 0,0.685547 -0.492188,1.40625 -0.474609,0.720703 -1.757812,1.810547 -1.283203,1.089844 -1.59961,1.441406 -0.298828,0.333985 -0.298828,0.580079 0,0.193359 0.158203,0.333984 0.175782,0.140625 0.386719,0.140625 0.544922,0 1.6875,-0.5625 1.142578,-0.580078 2.566406,-1.792969 l 1.142579,-0.966797 0.123046,0.123047 q -3.779296,3.375 -5.572265,3.375 -0.386719,0 -0.667969,-0.298828 -0.28125,-0.316406 -0.28125,-0.773437 0,-0.439454 0.210938,-0.896485 0.228515,-0.457031 0.492187,-0.773437 0.28125,-0.316407 1.318359,-1.195313 l 0.808594,-0.685547 q 1.371094,-1.160156 1.371094,-1.617187 0,-0.47461 -0.703125,-0.47461 -1.300781,0 -3.621094,1.845704 -2.320312,1.828125 -5.396484,4.763671 h -1.740235 l 4.851563,-4.816406 q 1.142578,-1.142578 1.142578,-1.49414 0,-0.404297 -0.492187,-0.404297 -1.388672,0 -5.501954,3.445312 z"
             style="font-family:'Kunstler Script';-inkscape-font-specification:'Kunstler Script'"
             id="path18209" /><path
             d="m 78.93792,19.906551 q 4.148437,-3.46289 5.642578,-3.46289 0.351562,0 0.597656,0.246093 0.263672,0.228516 0.263672,0.632813 0,1.160156 -1.494141,2.724609 l 0.07031,0.07031 q 4.130859,-3.621094 5.71289,-3.621094 1.195313,0 1.195313,1.019531 0,0.685547 -0.492188,1.40625 -0.474609,0.720703 -1.757812,1.810547 -1.283203,1.089844 -1.59961,1.441406 -0.298828,0.333985 -0.298828,0.580079 0,0.193359 0.158203,0.333984 0.175782,0.140625 0.386719,0.140625 0.544922,0 1.6875,-0.5625 1.142578,-0.580078 2.566406,-1.792969 l 1.142579,-0.966797 0.123046,0.123047 q -3.779296,3.375 -5.572265,3.375 -0.386719,0 -0.667969,-0.298828 -0.28125,-0.316406 -0.28125,-0.773437 0,-0.439454 0.210938,-0.896485 0.228515,-0.457031 0.492187,-0.773437 0.28125,-0.316407 1.318359,-1.195313 l 0.808594,-0.685547 q 1.371094,-1.160156 1.371094,-1.617187 0,-0.47461 -0.703125,-0.47461 -1.300781,0 -3.621094,1.845704 -2.320312,1.828125 -5.396484,4.763671 h -1.740235 l 4.851563,-4.816406 q 1.142578,-1.142578 1.142578,-1.49414 0,-0.404297 -0.492187,-0.404297 -1.388672,0 -5.501954,3.445312 z"
             style="font-family:'Kunstler Script';-inkscape-font-specification:'Kunstler Script'"
             id="path18211" /><path
             d="m 99.83831,19.906551 0.123047,0.123047 q -2.109375,1.863281 -3.849609,2.707031 -1.740235,0.826172 -2.777344,0.826172 -1.441406,0 -1.441406,-1.476562 0,-1.986328 2.707031,-3.744141 2.724609,-1.757812 4.253906,-1.757812 0.28125,0 0.47461,0.158203 0.210937,0.158203 0.210937,0.386719 0,0.861328 -1.705078,1.810546 -1.705078,0.949219 -3.779297,1.177735 -1.792969,1.792969 -1.792969,2.460937 0,0.316407 0.316407,0.597657 0.316406,0.263671 0.738281,0.263671 0.914062,0 2.583984,-0.791015 1.6875,-0.808594 3.9375,-2.742188 z m -5.519531,0 q 0.527344,0 1.863281,-0.457031 1.335938,-0.457031 2.214844,-1.177734 0.896484,-0.720703 0.896484,-1.195313 0,-0.333984 -0.386718,-0.333984 -0.457032,0 -1.019532,0.28125 -0.544922,0.28125 -1.669922,1.160156 -1.125,0.861328 -1.898437,1.722656 z"
             style="font-family:'Kunstler Script';-inkscape-font-specification:'Kunstler Script'"
             id="path18213" /></g><g
           aria-label="et"
           id="text18195"
           style="font-size:36px;font-family:'Kunstler Script';-inkscape-font-specification:'Kunstler Script';stroke-linecap:round"
           inkscape:label="et"><path
             d="m 41.682945,35.917171 0.123047,0.123047 q -2.109375,1.863282 -3.849609,2.707032 -1.740235,0.826171 -2.777344,0.826171 -1.441406,0 -1.441406,-1.476562 0,-1.986328 2.707031,-3.744141 2.724609,-1.757812 4.253906,-1.757812 0.28125,0 0.47461,0.158203 0.210937,0.158203 0.210937,0.386719 0,0.861328 -1.705078,1.810547 -1.705078,0.949218 -3.779297,1.177734 -1.792969,1.792969 -1.792969,2.460937 0,0.316407 0.316407,0.597657 0.316406,0.263672 0.738281,0.263672 0.914062,0 2.583984,-0.791016 1.6875,-0.808594 3.9375,-2.742188 z m -5.519531,0 q 0.527344,0 1.863281,-0.457031 1.335938,-0.457031 2.214844,-1.177734 0.896484,-0.720703 0.896484,-1.195313 0,-0.333984 -0.386718,-0.333984 -0.457032,0 -1.019532,0.28125 -0.544921,0.28125 -1.669921,1.160156 -1.125,0.861328 -1.898438,1.722656 z"
             id="path18216" /><path
             d="m 41.788414,36.040218 -0.123047,-0.123047 4.833985,-3.955078 2.05664,-1.617187 h -1.599609 l 0.07031,-0.158203 h 1.775391 l 2.970703,-3.111328 1.494141,-0.03516 -2.865235,3.146485 h 2.53125 l -0.05273,0.158203 h -2.654297 l -6.064453,6.46875 q -1.089844,1.160156 -1.318359,1.458984 -0.210938,0.298828 -0.210938,0.5625 0,0.263672 0.210938,0.457031 0.228515,0.175782 0.474609,0.175782 1.441406,0 5.519531,-3.550782 l 0.123047,0.123047 q -4.236328,3.638672 -5.677734,3.638672 -0.457032,0 -0.791016,-0.36914 -0.316406,-0.386719 -0.316406,-0.896485 0,-1.318359 1.757812,-3.18164 l 3.585938,-3.726563 -0.07031,-0.05273 z"
             id="path18218" /></g><g
           aria-label="ses Délices"
           id="text18203"
           style="font-size:4.9389px;stroke-linecap:round"
           inkscape:label="ses Delices"><path
             d="m 23.846548,55.857052 -0.123047,-0.123047 6.451172,-5.396484 0.105469,0.175781 q -0.738281,0.597656 -0.949219,0.896484 -0.210937,0.298828 -0.210937,0.75586 0,0.36914 0.123046,1.142578 0.123047,0.755859 0.123047,1.388672 0,1.283203 -0.914062,2.373046 l 1.582031,-1.335937 0.123047,0.123047 q -3.955078,3.480469 -6.416016,3.480469 -0.597656,0 -1.037109,-0.333985 -0.421875,-0.351562 -0.421875,-0.896484 0,-0.404297 0.28125,-0.685547 0.263672,-0.298828 0.632812,-0.298828 0.228516,0 0.386719,0.158203 0.175781,0.158203 0.175781,0.369141 0,0.298828 -0.246093,0.544921 -0.228516,0.228516 -0.492188,0.228516 -0.105469,0 -0.28125,-0.05273 0,0.773437 0.984375,0.773437 1.388672,0 3.128906,-2.021484 1.757813,-2.021485 1.933594,-4.253906 0.07031,-0.720704 0.246094,-1.300782 z"
             style="font-size:36px;font-family:'Kunstler Script';-inkscape-font-specification:'Kunstler Script'"
             id="path18221" /><path
             d="m 37.153189,55.734005 0.123047,0.123047 q -2.109375,1.863281 -3.84961,2.707031 -1.740234,0.826172 -2.777344,0.826172 -1.441406,0 -1.441406,-1.476563 0,-1.986328 2.707031,-3.74414 2.72461,-1.757813 4.253907,-1.757813 0.28125,0 0.474609,0.158203 0.210938,0.158204 0.210938,0.386719 0,0.861328 -1.705079,1.810547 -1.705078,0.949219 -3.779296,1.177734 -1.792969,1.792969 -1.792969,2.460938 0,0.316406 0.316406,0.597656 0.316406,0.263672 0.738281,0.263672 0.914063,0 2.583985,-0.791016 1.6875,-0.808593 3.9375,-2.742187 z m -5.519532,0 q 0.527344,0 1.863282,-0.457031 1.335937,-0.457032 2.214843,-1.177735 0.896485,-0.720703 0.896485,-1.195312 0,-0.333985 -0.386719,-0.333985 -0.457031,0 -1.019531,0.28125 -0.544922,0.28125 -1.669922,1.160157 -1.125,0.861328 -1.898438,1.722656 z"
             style="font-size:36px;font-family:'Kunstler Script';-inkscape-font-specification:'Kunstler Script'"
             id="path18223" /><path
             d="m 37.258657,55.857052 -0.123046,-0.123047 6.451171,-5.396484 0.105469,0.175781 q -0.738281,0.597656 -0.949219,0.896484 -0.210937,0.298828 -0.210937,0.75586 0,0.36914 0.123047,1.142578 0.123047,0.755859 0.123047,1.388672 0,1.283203 -0.914063,2.373046 l 1.582031,-1.335937 0.123047,0.123047 q -3.955078,3.480469 -6.416015,3.480469 -0.597657,0 -1.03711,-0.333985 -0.421875,-0.351562 -0.421875,-0.896484 0,-0.404297 0.28125,-0.685547 0.263672,-0.298828 0.632813,-0.298828 0.228515,0 0.386719,0.158203 0.175781,0.158203 0.175781,0.369141 0,0.298828 -0.246094,0.544921 -0.228516,0.228516 -0.492187,0.228516 -0.105469,0 -0.28125,-0.05273 0,0.773437 0.984375,0.773437 1.388671,0 3.128906,-2.021484 1.757812,-2.021485 1.933594,-4.253906 0.07031,-0.720704 0.246093,-1.300782 z"
             style="font-size:36px;font-family:'Kunstler Script';-inkscape-font-specification:'Kunstler Script'"
             id="path18225" /><path
             d="m 80.162958,41.601192 q -1.107422,-3.18164 -3.990234,-4.78125 -2.865235,-1.599609 -6.416016,-1.599609 -3.955078,0 -7.505859,1.722656 -3.533203,1.705078 -6.205078,4.69336 -2.671875,2.988281 -2.671875,5.185547 0,1.423828 1.511718,2.742187 1.511719,1.318359 4.13086,1.318359 4.86914,0 9.017578,-2.601562 4.148437,-2.601563 4.148437,-5.396484 0,-0.966797 -0.93164,-1.828125 -0.931641,-0.861329 -2.460938,-0.861329 -3.005859,0 -6.451172,2.144532 -3.427734,2.144531 -6.029296,6.099609 l -0.123047,-0.08789 q 2.373047,-3.65625 5.871093,-5.976562 3.515625,-2.320313 6.714844,-2.320313 1.669922,0 2.619141,0.931641 0.949219,0.931641 0.949219,1.898438 0,2.847656 -4.236329,5.501953 -4.21875,2.654297 -9.08789,2.654297 -2.8125,0 -4.5,-1.529297 -1.6875,-1.529297 -1.6875,-3.603516 0,-2.970703 2.285156,-5.554687 2.302734,-2.601563 6.292969,-3.955079 3.990234,-1.371093 8.068359,-1.371093 3.779297,0 6.679688,1.564453 2.917968,1.564453 4.130859,4.921875 0.5625,-0.386719 1.6875,-1.072266 l 2.003906,-1.230469 0.07031,0.140625 -1.248047,0.738282 q -0.474609,0.28125 -1.107422,0.703125 l -1.353516,0.861328 q 0.386719,1.125 0.386719,2.232422 0,3.322265 -2.074219,7.066406 -2.05664,3.726562 -5.853515,6.099609 -3.779297,2.373047 -8.560547,2.373047 -2.583984,0 -4.570313,-0.720703 -2.443359,0.597656 -5.273437,0.597656 -2.337891,0 -3.427734,-0.404297 -1.089844,-0.421875 -1.089844,-1.019531 0,-1.125 2.8125,-1.125 2.091797,0 4.957031,0.826172 l 2.566406,0.861328 q 0.08789,0.03516 1.160157,-0.246094 1.089843,-0.28125 2.109375,-0.755859 1.037109,-0.474609 2.197265,-1.318359 1.160156,-0.861328 2.056641,-1.775391 0.914062,-0.931641 3.304687,-3.867187 5.115235,-6.345704 9.123047,-8.876954 z M 60.616083,58.564083 q -0.03516,0 0.597656,0.158203 l 1.757813,0.351563 0.5625,0.07031 q 0.263672,0.01758 0.544922,0.05274 0.263672,0.01758 0.527344,0.01758 0.263671,0.01758 0.527343,0.01758 3.796875,0 7.488282,-2.25 3.708984,-2.25 5.818359,-5.976563 2.126953,-3.74414 2.126953,-7.136718 0,-1.019532 -0.369141,-2.074219 -1.21289,0.861328 -2.267578,1.916015 -1.037109,1.019532 -2.197265,2.53125 -0.984375,1.300782 -2.707032,3.9375 -1.300781,1.986329 -2.074218,2.882813 -0.703125,0.826172 -1.652344,1.582031 -1.125,0.896485 -2.337891,1.582031 -1.318359,0.738282 -2.654297,1.248047 -2.865234,1.089844 -3.691406,1.089844 z m -1.300781,0.01758 q -3.779297,-1.582031 -7.066406,-1.582031 -2.16211,0 -2.16211,0.878906 0,0.421875 0.984375,0.84375 1.001953,0.421875 3.357422,0.421875 2.935547,0 4.886719,-0.5625 z"
             style="font-size:36px;font-family:'Kunstler Script';-inkscape-font-specification:'Kunstler Script'"
             id="path18227" /><path
             d="m 84.786005,55.734005 0.123047,0.123047 q -2.109375,1.863281 -3.849609,2.707031 -1.740235,0.826172 -2.777344,0.826172 -1.441406,0 -1.441406,-1.476563 0,-1.986328 2.707031,-3.74414 2.724609,-1.757813 4.253906,-1.757813 0.28125,0 0.474609,0.158203 0.210938,0.158204 0.210938,0.386719 0,0.861328 -1.705078,1.810547 -1.705078,0.949219 -3.779297,1.177734 -1.792969,1.792969 -1.792969,2.460938 0,0.316406 0.316406,0.597656 0.316407,0.263672 0.738282,0.263672 0.914062,0 2.583984,-0.791016 1.6875,-0.808593 3.9375,-2.742187 z m -5.519531,0 q 0.527344,0 1.863281,-0.457031 1.335938,-0.457032 2.214844,-1.177735 0.896484,-0.720703 0.896484,-1.195312 0,-0.333985 -0.386719,-0.333985 -0.457031,0 -1.019531,0.28125 -0.544922,0.28125 -1.669922,1.160157 -1.125,0.861328 -1.898437,1.722656 z m 4.710937,-4.640625 q 0.08789,0 0.896485,-0.421875 0.351562,-0.193359 0.615234,-0.369141 0.298828,-0.210937 0.597656,-0.492187 0.351563,-0.316406 0.597657,-0.597656 l 0.404296,-0.492188 q 0.140625,-0.158203 0.228516,-0.210937 0.07031,-0.05274 0.140625,-0.07031 0.07031,-0.01758 0.158203,-0.01758 0.527344,0 0.527344,0.509766 0,0.105468 -0.03516,0.228515 -0.03516,0.140625 -0.105469,0.246094 -0.08789,0.105469 -0.210938,0.228516 -0.175781,0.158203 -0.457031,0.333984 -0.36914,0.228516 -0.791015,0.421875 -0.386719,0.193359 -0.773438,0.333984 -0.404297,0.140625 -0.755859,0.210938 -0.808594,0.158203 -1.03711,0.158203 z"
             style="font-size:36px;font-family:'Kunstler Script';-inkscape-font-specification:'Kunstler Script'"
             id="path18229" /><path
             d="m 84.891474,55.857052 -0.123047,-0.123047 q 3.867187,-3.304688 4.517578,-3.779297 0.667969,-0.474609 1.037109,-0.650391 0.386719,-0.175781 0.650391,-0.439453 2.988281,-3.199218 5.730469,-5.695312 2.742187,-2.496094 4.675786,-3.867188 1.95117,-1.388672 3.25195,-1.388672 0.47461,0 0.79101,0.298829 0.33399,0.28125 0.33399,0.632812 0,1.019531 -2.25,3.041016 -2.25,2.003906 -5.572267,4.007812 -3.322266,2.003906 -5.097657,2.513672 -0.404297,0.474609 -1.49414,1.652344 l -1.40625,1.546875 -1.775391,2.109375 q -1.845703,2.197265 -1.96875,2.794922 v 0.158203 q 0,0.580078 0.650391,0.580078 1.511718,0 5.466797,-3.515625 l 0.123046,0.123047 -1.072265,0.914062 q -3.199219,2.72461 -4.640625,2.72461 -0.439453,0 -0.773438,-0.351563 -0.316406,-0.333984 -0.316406,-0.808594 0,-1.300781 2.021484,-3.761718 2.021485,-2.460938 2.601563,-2.847657 l -0.01758,-0.105468 q -0.632813,0.28125 -1.863281,1.353515 z m 8.191406,-5.712891 q 1.40625,-0.457031 4.763672,-2.425781 3.374998,-1.986328 5.519528,-3.955078 2.14453,-1.986328 2.14453,-2.917969 0,-0.28125 -0.26367,-0.492187 -0.26367,-0.228516 -0.66797,-0.228516 -1.05468,0 -2.5664,1.019531 -1.49414,1.001953 -4.605471,4.21875 -3.09375,3.216797 -4.324219,4.78125 z"
             style="font-size:36px;font-family:'Kunstler Script';-inkscape-font-specification:'Kunstler Script'"
             id="path18231" /><path
             d="m 101.06335,48.825802 q 0,0.386719 -0.3164,0.65039 -0.31641,0.263672 -0.66797,0.263672 -0.246096,0 -0.421877,-0.175781 -0.175782,-0.193359 -0.175782,-0.457031 0,-0.333985 0.298828,-0.632813 0.298831,-0.298828 0.667971,-0.298828 0.26367,0 0.43945,0.19336 0.17578,0.193359 0.17578,0.457031 z m -8.630857,7.03125 -0.123047,-0.123047 q 0.861328,-0.738281 4.341797,-3.445313 h 1.705078 l -5.572265,5.484375 q -0.316407,0.316407 -0.421875,0.632813 v 0.123047 q 0,0.228515 0.175781,0.404297 0.175781,0.175781 0.439453,0.175781 0.5625,0 1.582031,-0.5625 1.03711,-0.580078 3.603516,-2.8125 l 0.123047,0.123047 q -3.919922,3.427734 -5.291016,3.427734 -0.439453,0 -0.720703,-0.28125 -0.263672,-0.28125 -0.263672,-0.755859 0,-0.667969 0.439453,-1.40625 0.457032,-0.75586 3.375,-3.56836 l -0.03516,-0.08789 -1.617187,1.230469 z"
             style="font-size:36px;font-family:'Kunstler Script';-inkscape-font-specification:'Kunstler Script'"
             id="path18233" /><path
             d="m 104.89538,55.734005 0.12305,0.123047 q -1.5293,1.371094 -3.39258,2.460937 -1.863279,1.072266 -2.917966,1.072266 -1.371094,0 -1.371094,-1.546875 0,-2.126953 2.583984,-3.867188 2.583986,-1.740234 3.867186,-1.740234 0.43946,0 0.72071,0.263672 0.29882,0.246094 0.29882,0.615234 0,0.527344 -0.45703,1.001953 -0.45703,0.47461 -0.86133,0.47461 -0.22851,0 -0.42187,-0.19336 -0.19336,-0.193359 -0.19336,-0.404296 0,-0.298829 0.24609,-0.527344 0.2461,-0.246094 0.54493,-0.246094 0.29882,0 0.42187,0.228516 0.12305,0.228515 0.19336,0.228515 0.14062,0 0.24609,-0.210937 0.10547,-0.210938 0.10547,-0.369141 0,-0.298828 -0.24609,-0.492187 -0.2461,-0.19336 -0.50977,-0.19336 -1.05468,0 -3.56836,2.707032 -2.513669,2.707031 -2.513669,3.445312 0,0.298828 0.263672,0.474609 0.263672,0.175782 0.615235,0.175782 1.107421,0 2.917972,-1.089844 1.82812,-1.089844 3.30468,-2.390625 z"
             style="font-size:36px;font-family:'Kunstler Script';-inkscape-font-specification:'Kunstler Script'"
             id="path18235" /><path
             d="m 111.99695,55.734005 0.12304,0.123047 q -2.10937,1.863281 -3.84961,2.707031 -1.74023,0.826172 -2.77734,0.826172 -1.44141,0 -1.44141,-1.476563 0,-1.986328 2.70704,-3.74414 2.7246,-1.757813 4.2539,-1.757813 0.28125,0 0.47461,0.158203 0.21094,0.158204 0.21094,0.386719 0,0.861328 -1.70508,1.810547 -1.70508,0.949219 -3.7793,1.177734 -1.79297,1.792969 -1.79297,2.460938 0,0.316406 0.31641,0.597656 0.31641,0.263672 0.73828,0.263672 0.91406,0 2.58399,-0.791016 1.6875,-0.808593 3.9375,-2.742187 z m -5.51953,0 q 0.52734,0 1.86328,-0.457031 1.33593,-0.457032 2.21484,-1.177735 0.89648,-0.720703 0.89648,-1.195312 0,-0.333985 -0.38671,-0.333985 -0.45704,0 -1.01954,0.28125 -0.54492,0.28125 -1.66992,1.160157 -1.125,0.861328 -1.89843,1.722656 z"
             style="font-size:36px;font-family:'Kunstler Script';-inkscape-font-specification:'Kunstler Script'"
             id="path18237" /><path
             d="m 112.10242,55.857052 -0.12305,-0.123047 6.45117,-5.396484 0.10547,0.175781 q -0.73828,0.597656 -0.94922,0.896484 -0.21094,0.298828 -0.21094,0.75586 0,0.36914 0.12305,1.142578 0.12305,0.755859 0.12305,1.388672 0,1.283203 -0.91407,2.373046 l 1.58204,-1.335937 0.12304,0.123047 q -3.95508,3.480469 -6.41601,3.480469 -0.59766,0 -1.03711,-0.333985 -0.42188,-0.351562 -0.42188,-0.896484 0,-0.404297 0.28125,-0.685547 0.26367,-0.298828 0.63281,-0.298828 0.22852,0 0.38672,0.158203 0.17578,0.158203 0.17578,0.369141 0,0.298828 -0.24609,0.544921 -0.22851,0.228516 -0.49219,0.228516 -0.10547,0 -0.28125,-0.05273 0,0.773437 0.98438,0.773437 1.38867,0 3.1289,-2.021484 1.75782,-2.021485 1.9336,-4.253906 0.0703,-0.720704 0.24609,-1.300782 z"
             style="font-size:36px;font-family:'Kunstler Script';-inkscape-font-specification:'Kunstler Script'"
             id="path18239" /></g></g></g></g></svg>
